<svg width="115" height="103" viewBox="0 0 115 103" fill="none" xmlns="http://www.w3.org/2000/svg">
<path d="M21.2104 87.5532L13.1388 6.4375H101.861L93.779 87.5403L57.4461 96.5625L21.2104 87.5532Z" fill="#1572B6"/>
<path d="M57.5 89.6679L86.8609 82.3775L93.7681 13.0714H57.5V89.6679Z" fill="#33A9DC"/>
<path d="M57.5 42.4585H72.1984L73.2119 32.2712H57.5V22.322H85.3516L85.0856 24.9904L82.358 52.4077H57.5V42.4585V42.4585Z" fill="white"/>
<path d="M57.5683 68.2955L57.518 68.3083L45.1483 65.3149L44.3577 57.3807H33.2063L34.7624 73.0013L57.5144 78.6598L57.5683 78.647V68.2955V68.2955Z" fill="#EBEBEB"/>
<path d="M71.2532 51.986L69.9163 65.3084L57.5287 68.3019V78.6534L80.2987 73.0012L80.4676 71.3211L82.3974 51.986H71.2532V51.986Z" fill="white"/>
<path d="M57.5395 22.322V32.2712H30.7086L30.4858 30.0341L29.9791 24.9904L29.7131 22.322H57.5395V22.322ZM57.5 42.4585V52.4077H45.2849L45.062 50.1706L44.5589 45.1269L44.293 42.4585H57.5V42.4585Z" fill="#EBEBEB"/>
</svg>
