<svg width="125" height="105" viewBox="0 0 125 105" fill="none" xmlns="http://www.w3.org/2000/svg">
<path d="M23.0547 89.2533L14.2773 6.5625H110.723L101.934 89.2402L62.4414 98.4375L23.0547 89.2533Z" fill="#E44F26"/>
<path d="M62.5 91.4091L94.4141 83.977L101.922 13.3252H62.5V91.4091Z" fill="#F1662A"/>
<path d="M62.5 43.9917H46.5234L45.4219 33.6066H62.5V23.4642H32.2266L32.5156 26.1877L35.4805 54.1341H62.5V43.9917V43.9917ZM62.5 70.3303L62.4453 70.3435L49 67.2952L48.1406 59.2069H36.0195L37.7109 75.1275L62.4453 80.8959L62.5 80.8828V70.3303Z" fill="#EBEBEB"/>
<path d="M62.457 43.9917V54.1341H77.3242L75.9258 67.2886L62.457 70.3402V80.8927L87.2109 75.1275L87.3906 73.4147L90.2266 46.7152L90.5234 43.9917H62.457V43.9917ZM62.457 23.4642V33.6066H91.6211L91.8633 31.3294L92.4141 26.1877L92.7031 23.4642H62.457V23.4642Z" fill="white"/>
</svg>
