<svg width="126" height="122" viewBox="0 0 126 122" fill="none" xmlns="http://www.w3.org/2000/svg">
<path d="M7.875 7.625H118.125V114.375H7.875V7.625Z" fill="#F5DE19"/>
<path d="M81.9354 91.0234C82.8748 92.871 84.3342 94.4239 86.1455 95.5031C87.9568 96.5824 90.0462 97.1441 92.1729 97.1234C96.4648 97.1234 99.2092 95.0456 99.2092 92.1672C99.2092 88.7359 96.39 87.5083 91.665 85.5067L89.0741 84.4316C81.5928 81.3473 76.6316 77.4852 76.6316 69.3189C76.6316 61.7968 82.5379 56.0666 91.8028 56.0666C94.802 55.8569 97.7986 56.5069 100.419 57.9354C103.039 59.3639 105.167 61.5078 106.537 64.0996L98.4375 69.113C97.9099 67.8279 96.9914 66.7284 95.8037 65.9604C94.6159 65.1923 93.2151 64.792 91.787 64.8125C91.164 64.7521 90.5347 64.818 89.9395 65.0061C89.3442 65.1942 88.7959 65.5003 88.3295 65.9048C87.8631 66.3094 87.4889 66.8036 87.2307 67.356C86.9725 67.9083 86.8359 68.5067 86.8297 69.113C86.8297 72.1211 88.7552 73.3411 93.2006 75.213L95.7915 76.2881C104.596 79.9443 109.573 83.6691 109.573 92.0452C109.573 101.077 102.245 106.026 92.4052 106.026C88.5713 106.262 84.7486 105.419 81.3984 103.599C78.0482 101.778 75.3137 99.0581 73.5249 95.7662L81.9354 91.0234ZM45.3363 91.8927C46.9625 94.6873 48.443 97.051 52.0025 97.051C55.4045 97.051 57.5544 95.7624 57.5544 90.7489V56.6385H67.914V90.8824C67.914 101.268 61.614 105.995 52.4435 105.995C49.202 106.167 45.9827 105.385 43.2089 103.751C40.435 102.118 38.2365 99.7107 36.9022 96.8451L45.3363 91.8927Z" fill="black"/>
</svg>
