<svg width="103" height="108" viewBox="0 0 103 108" fill="none" xmlns="http://www.w3.org/2000/svg">
<path d="M0 54V108H103V0H0V54ZM83.0015 49.68C85.4685 50.2803 87.7107 51.6332 89.4452 53.568C90.4001 54.6104 91.2302 55.7709 91.9172 57.024C91.9172 57.1622 87.4676 60.3158 84.7566 62.0784C84.6578 62.1475 84.2622 61.6982 83.8255 61.0157C83.3306 60.1203 82.6275 59.371 81.7816 58.8376C80.9358 58.3043 79.9749 58.0043 78.9886 57.9658C75.8657 57.7411 73.8551 59.4605 73.8716 62.2858C73.8458 62.9892 73.9994 63.6871 74.3166 64.3075C75.0005 65.8022 76.2777 66.6922 80.2823 68.5066C87.6571 71.833 90.813 74.0275 92.7742 77.1466C94.966 80.6026 95.4522 86.184 93.969 90.3139C92.321 94.8067 88.2834 97.8566 82.573 98.8675C79.965 99.1807 77.3298 99.1517 74.7286 98.7811C70.7418 98.0921 67.0693 96.085 64.2473 93.0528C63.2997 91.9555 61.4539 89.0957 61.5693 88.8883C61.8701 88.6542 62.1868 88.4434 62.5169 88.2576L66.332 86.0458L69.2902 84.2486L69.9082 85.2077C70.9511 86.772 72.2784 88.1051 73.8139 89.1302C77.1099 90.9446 81.609 90.6941 83.8338 88.5946C84.5807 87.8252 85.0467 86.8055 85.1506 85.7131C85.2545 84.6206 84.9897 83.5245 84.4023 82.6157C83.5783 81.4147 81.9303 80.4038 77.3242 78.2957C72.0094 75.8938 69.7186 74.4077 67.6257 72.0403C66.3191 70.4781 65.3544 68.635 64.7994 66.6403C64.3853 64.3615 64.3241 62.0276 64.6181 59.7283C65.714 54.3456 69.5621 50.5872 75.1818 49.4726C77.7843 49.135 80.4205 49.2107 83.0015 49.6973V49.68ZM58.8254 54.2074V58.631H45.4518V98.5738H35.9676V58.6224H22.5611V54.3024C22.5194 52.8127 22.5524 51.3216 22.66 49.8355C22.7259 49.7578 30.9 49.7578 40.788 49.7578H58.7759L58.8254 54.2074Z" fill="#007ACC"/>
</svg>
